<?xml version="1.0" encoding="UTF-8"?>
<svg id="Layer_1" data-name="Layer 1" xmlns="http://www.w3.org/2000/svg" viewBox="0 0 1080 1080">
  <defs>
    <style>
      .cls-1 {
        fill: #282828;
      }

      .cls-2 {
        fill: #f1f0f0;
      }
    </style>
  </defs>
  <circle class="cls-2" cx="540" cy="540" r="540"/>
  <g>
    <circle class="cls-1" cx="660" cy="300" r="96"/>
    <circle class="cls-1" cx="660" cy="780" r="96"/>
    <path class="cls-1" d="m516,780c0,26.51-10.75,50.51-28.12,67.88-17.37,17.37-41.37,28.12-67.88,28.12-26.51,0-50.51-10.75-67.88-28.12-17.37-17.37-28.12-41.37-28.12-67.88s10.75-50.51,28.12-67.88c17.37-17.37,41.37-28.12,67.88-28.12l-4.63.12c.65-.02,1.62-.05,2.8-.09,16.57-.66,33.34-3.27,44.65-6.5,31.96-9.13,57.02-33.72,59-35.7,25.79-25.79,41.84-61.32,42.17-100.6,0-.41.01-2.45,0-1.22,0-26.51,10.75-50.51,28.12-67.88,17.37-17.37,41.37-28.12,67.88-28.12,26.51,0,50.51,10.75,67.88,28.12,17.37,17.37,28.12,41.37,28.12,67.88,0,26.51-10.75,50.51-28.12,67.88-17.37,17.37-41.37,28.12-67.88,28.12l3.28-.06h0l-3.28.06c-39.76.69-75.76,16.12-101.82,42.18-26.06,26.06-42.18,62.06-42.18,101.82l-.03,2.39.03,2.39"/>
    <path class="cls-1" d="m477.17,462.43c-10.86-10.86-17.57-25.86-17.57-42.43,0-16.57,6.72-31.57,17.57-42.43l10.71-9.69c17.37-17.37,28.12-41.37,28.12-67.88s-10.75-50.51-28.12-67.88c-17.37-17.37-41.37-28.12-67.88-28.12s-50.51,10.75-67.88,28.12c-17.37,17.37-28.12,41.37-28.12,67.88s10.75,50.51,28.12,67.88l10.71,9.69c10.86,10.86,17.57,25.86,17.57,42.43,0,16.57-6.72,31.57-17.57,42.43l-10.71,9.69c-17.37,17.37-28.12,41.37-28.12,67.88s10.75,50.51,28.12,67.88c17.37,17.37,41.37,28.12,67.88,28.12,26.51,0,50.51-10.75,67.88-28.12,17.37-17.37,28.12-41.37,28.12-67.88,0-26.51-10.75-50.51-28.12-67.88l-10.71-9.69Z"/>
  </g>
</svg>